<?xml version="1.0" encoding="UTF-8" standalone="no"?>
<svg
   xmlns="http://www.w3.org/2000/svg"
   version="1.0"
   viewBox="0 0 1014 828"
   id="map-belgium">

  <g
     transform="translate(98.4797, -104.219)"
     style="display: inline;"
     id="layer1">
    <path
       d="M 131.42857,415.93361 L 125.17485,416.85038 L 123.77232,423.65682 L 115.40178,424.95147 L 113.66072,432.54075 L 102.89619,426.96964 L 103.70536,421.55861 L 98.03572,414.14789 L 86.428573,414.50504 L 76.25,407.36218 L 65.714286,413.79075 L 72.857143,429.50504 L 80.714286,430.93361 L 87.142857,438.79075 L 82.142857,449.50504 L 87.142857,472.36218 L 91.428572,498.07647 L 100,512.36218 L 117.14286,523.07647 L 142.85714,508.07647 L 155,510.21932 L 146.42857,523.07647 L 166.42857,518.79075 L 182.14286,528.07647 L 194.28571,548.07647 L 190.71429,571.6479 L 192.78545,587.02465 L 203.98985,600.39264 L 208.17347,595.19322 L 210.83683,582.23963 L 227.53262,579.64384 L 241.42857,581.6479 L 252.85714,590.93361 L 284.82668,579.67092 L 312.85714,604.50504 L 316.42857,620.93361 L 324.28571,620.21933 L 322.85714,608.07647 L 335.71429,615.93361 L 335.71429,626.6479 L 320,638.79075 L 320.71429,660.21933 L 312.14286,670.21933 L 318.57143,673.07647 L 331.42857,671.6479 L 332.14286,684.50504 L 340,698.07647 L 330.71429,707.36218 L 320,706.6479 L 315,719.50504 L 322.85714,727.36218 L 319.28571,735.93361 L 332.14286,742.36218 L 359.28571,738.07647 L 393.57143,750.93361 L 396.42857,745.21933 L 387.85714,726.6479 L 387.14286,705.21933 L 382.85714,695.93361 L 380.71429,678.07647 L 385.71429,674.50504 L 381.42857,663.79075 L 375,658.79075 L 382.85714,649.50504 L 382.85714,639.50504 L 385,630.93361 L 377.14286,626.6479 L 370,631.6479 L 355,622.36218 L 369.28571,610.21933 L 382.85714,604.50504 L 384.28571,596.6479 L 402.85714,599.50504 L 405,591.6479 L 412.85714,591.6479 L 419.28571,597.36218 L 435.71429,592.36218 L 435,585.93361 L 432.85714,573.79075 L 438.57143,568.07647 L 434.28571,563.07647 L 438.57143,559.50504 L 442.85714,549.50504 L 436.42857,549.50504 L 430.71429,540.21932 L 436.42857,530.21932 L 435,522.36218 L 427.14286,521.6479 L 427.14286,513.07647 L 431.42857,510.21932 L 431.42857,503.07647 L 414.28571,508.79075 L 411.42857,503.07647 L 402.85714,508.07647 L 405,497.36218 L 385,493.79075 L 375.71429,493.79075 L 367.85714,502.36218 L 367.14286,492.36218 L 358.57143,488.79075 L 352.14286,481.6479 L 345,480.21932 L 344.28571,472.36218 L 332.85714,468.07647 L 332.14286,457.36218 L 326.42857,453.07647 L 317.14286,467.36218 L 305,463.79075 L 305,450.93361 L 306.42857,443.07647 L 303.57143,434.50504 L 299.28571,433.07647 L 292.14286,438.07647 L 272.14286,443.79075 L 259.28571,439.50504 L 251.42857,432.36218 L 252.85714,423.07647 L 248.57143,417.36218 L 237.14286,419.50504 L 229.28571,415.93361 L 221.42857,415.93361 L 216.42857,406.6479 L 205.71429,408.79075 L 205.71429,403.79075 L 196.42857,407.36218 L 186.42857,421.6479 L 186.42857,430.93361 L 176.42857,423.07647 L 162.14286,423.07647 L 162.14286,415.93361 L 159.28571,410.93361 L 148.57143,413.79075 L 138.57143,408.79075 L 131.42857,415.93361 z "
       style="fill: rgba(200, 200, 200, 0.5); fill-opacity: 1; fill-rule: evenodd; stroke: rgb(95, 95, 95); stroke-width: 1; stroke-linecap: butt; stroke-linejoin: miter; stroke-miterlimit: 4; stroke-dasharray: none; stroke-opacity: 1;"
       id="path2622" />
    <path
       d="M 59.093924,403.84425 L 65.714286,413.79075 L 76.25,407.36218 L 86.428573,414.50504 L 98.03572,414.14789 L 103.70536,421.55861 L 102.89619,426.96964 L 113.66072,432.54075 L 115.40178,424.95147 L 123.77232,423.65682 L 125.17485,416.85038 L 131.42857,415.93361 L 138.57143,408.79075 L 145.46197,403.84425 L 148.49242,397.78333 L 154.55334,396.77318 L 157.07872,394.2478 L 150.51273,384.14627 L 154.04826,383.13612 L 146.47212,372.02444 L 141.92643,372.02444 L 136.87567,365.45845 L 141.92643,364.95338 L 146.47212,358.38738 L 138.89598,351.31632 L 133.84521,355.862 L 128.28937,350.81124 L 132.32998,345.76048 L 131.82491,339.69956 L 138.3909,343.2351 L 140.4112,339.69956 L 134.85536,337.67926 L 140.4112,337.17418 L 137.38075,333.13357 L 129.29953,332.62849 L 128.28937,329.59804 L 135.86552,325.55743 L 131.82491,321.51682 L 134.85536,315.96098 L 139.40105,310.91021 L 131.31983,296.76808 L 134.85536,295.75793 L 136.87567,293.23254 L 123.23861,283.6361 L 110.10663,273.53457 L 108.5914,269.99904 L 121.21831,260.90766 L 127.27922,248.28076 L 122.73353,235.14877 L 115.66247,233.12847 L 122.22846,228.58278 L 119.198,221.00664 L 118.18785,218.48126 L 126.26907,214.94572 L 126.26907,210.90511 L 120.71323,197.77313 L 122.73353,194.23759 L 117.68277,189.69191 L 120.71323,187.6716 L 116.16754,182.62084 L 124.75384,175.0447 L 119.70308,168.98378 L 120.71323,164.43809 L 117.1777,159.89241 L 81.822356,173.02439 L 72.730983,168.4787 L 69.700526,176.05485 L 43.436559,185.6513 L 36.870568,193.22744 L 7.5761441,210.40004 L 2.5253814,210.90511 L -5.555839,218.98633 L -63.63961,254.84675 L -97.479721,270.50411 L -92.428958,282.12087 L -89.903577,301.81884 L -88.388348,308.88991 L -81.31728,310.91021 L -81.822356,315.96098 L -75.761441,332.62849 L -87.883271,342.73002 L -82.832509,344.24525 L -81.31728,364.4483 L -85.862966,370.50921 L -80.812204,370.50921 L -76.266517,385.6615 L -69.195449,387.17673 L -67.680221,382.12597 L -64.144687,386.67165 L -55.55839,385.15643 L -53.033009,387.68181 L -53.033009,393.23765 L -43.941636,403.33917 L -44.446712,407.37978 L -38.890873,412.43054 L -32.324881,427.07776 L -22.223356,424.55238 L -17.172593,431.11837 L -15.152288,428.59299 L -22.223356,418.49146 L -18.687822,416.97623 L -21.71828,411.92547 L -13.637059,408.38993 L -8.5862966,412.93562 L -2.0203051,409.90516 L -2.0203051,407.37978 L 9.5964492,403.33917 L 4.5456865,394.75288 L 18.687822,388.69196 L 23.233509,390.20719 L 23.233509,399.80364 L 27.274119,401.31887 L 24.748737,405.35948 L 35.355339,400.81379 L 42.426407,405.86455 L 47.982246,395.76303 L 52.022856,398.79349 L 58.588848,398.79349 L 59.093924,403.84425 z "
       style="fill: rgba(200, 200, 200, 0.5); fill-opacity: 1; fill-rule: evenodd; stroke: rgb(95, 95, 95); stroke-width: 1; stroke-linecap: butt; stroke-linejoin: miter; stroke-miterlimit: 4; stroke-dasharray: none; stroke-opacity: 1;"
       id="path2624" />
    <path
       d="M 257.5889,425.05746 L 252.85714,423.07647 L 248.57143,417.36218 L 237.14286,419.50504 L 229.28571,415.93361 L 221.42857,415.93361 L 216.42857,406.6479 L 205.71429,408.79075 L 205.71429,403.79075 L 196.42857,407.36218 L 186.42857,421.6479 L 186.42857,430.93361 L 176.42857,423.07647 L 162.14286,423.07647 L 162.14286,415.93361 L 159.28571,410.93361 L 148.57143,413.79075 L 138.57143,408.79075 L 145.46197,403.84425 L 148.49242,397.78333 L 154.55334,396.77318 L 157.07872,394.2478 L 150.51273,384.14627 L 154.04826,383.13612 L 146.47212,372.02444 L 141.92643,372.02444 L 136.87567,365.45845 L 141.92643,364.95338 L 146.47212,358.38738 L 138.89598,351.31632 L 133.84521,355.862 L 128.28937,350.81124 L 132.32998,345.76048 L 131.82491,339.69956 L 138.3909,343.2351 L 140.4112,339.69956 L 134.85536,337.67926 L 140.4112,337.17418 L 137.38075,333.13357 L 129.29953,332.62849 L 128.28937,329.59804 L 135.86552,325.55743 L 131.82491,321.51682 L 134.85536,315.96098 L 139.40105,310.91021 L 131.31983,296.76808 L 134.85536,295.75793 L 136.87567,293.23254 L 123.23861,283.6361 L 110.10663,273.53457 L 108.5914,269.99904 L 121.21831,260.90766 L 127.27922,248.28076 L 122.73353,235.14877 L 115.66247,233.12847 L 122.22846,228.58278 L 119.198,221.00664 L 118.18785,218.48126 L 126.26907,214.94572 L 126.26907,210.90511 L 120.71323,197.77313 L 131.31983,206.86451 L 134.35029,213.4305 L 159.6041,210.90512 L 157.07872,194.2376 L 170.71578,192.2173 L 173.74624,194.2376 L 176.77669,187.67161 L 188.89852,194.74268 L 193.44421,193.22745 L 208.5965,201.81375 L 228.79955,207.87466 L 227.28432,226.05741 L 245.97214,227.06756 L 251.02291,222.0168 L 254.55844,222.0168 L 250.51783,231.10817 L 259.10413,229.08786 L 262.63966,222.52187 L 266.17519,226.05741 L 284.86302,214.44065 L 296.98485,214.44065 L 325.77419,193.22745 L 343.45186,168.98379 L 351.53308,173.0244 L 351.53308,185.14623 L 354.05846,192.2173 L 363.65491,194.74268 L 363.65491,200.80359 L 358.09907,208.37974 L 359.6143,226.05741 L 363.65491,237.67416 L 366.68537,237.67416 L 365.67522,259.39244 L 361.12953,263.93813 L 353.04831,263.43305 L 345.97724,267.97874 L 339.41125,264.4432 L 335.37064,264.4432 L 327.28942,271.51427 L 325.77419,279.59549 L 329.8148,279.59549 L 329.8148,289.19194 L 333.35034,289.19194 L 329.8148,296.26301 L 333.85541,301.31377 L 340.42141,296.76808 L 343.95694,299.79854 L 342.94679,306.36453 L 338.4011,308.88991 L 341.93663,313.4356 L 330.82496,322.52697 L 322.23866,318.99144 L 318.19805,328.08281 L 322.74374,336.66911 L 320.21835,339.19449 L 316.68282,348.28586 L 306.07622,342.73002 L 302.54069,354.34678 L 299.00515,354.34678 L 304.05591,360.91277 L 302.54069,366.97369 L 297.48992,367.47876 L 290.92393,383.13613 L 300.0153,383.13613 L 300.0153,391.21735 L 293.44931,403.33918 L 286.88332,403.84425 L 284.35794,408.89502 L 280.31733,404.34933 L 278.8021,409.90517 L 271.22596,409.90517 L 272.23611,404.85441 L 267.69042,404.85441 L 263.64981,413.4407 L 263.64981,417.98639 L 267.69042,423.03715 L 265.16504,426.06761 L 257.5889,425.05746 z "
       style="fill: rgba(200, 200, 200, 0.5); fill-opacity: 1; fill-rule: evenodd; stroke: rgb(95, 95, 95); stroke-width: 1; stroke-linecap: butt; stroke-linejoin: miter; stroke-miterlimit: 4; stroke-dasharray: none; stroke-opacity: 1;"
       id="path2639" />
    <path
       d="M 343.45186,168.98379 L 337.14286,160.21933 L 367.14285,159.1479 L 373.57143,168.07647 L 382.14285,168.43362 L 393.57143,159.50505 L 379.64285,140.93362 L 384.28571,132.00505 L 379.64285,129.86219 L 402.14285,117.00505 L 420.71428,116.29076 L 424.28571,120.93362 L 417.85714,126.6479 L 419.28571,139.50505 L 429.64285,134.86219 L 446.42857,139.86219 L 454.28571,138.43362 L 452.14285,130.57647 L 461.07143,128.07647 L 462.85714,120.93362 L 474.64285,108.07647 L 482.5,105.21933 L 492.14285,111.6479 L 494.28571,115.57647 L 498.21428,115.93362 L 496.78571,126.6479 L 495,129.50505 L 495.71428,140.93362 L 483.92857,135.93362 L 479.28571,135.93362 L 480.71428,142.71933 L 485,144.86219 L 498.57143,142.00505 L 503.92857,145.57647 L 510,142.00505 L 519.64285,152.00505 L 542.5,125.93362 L 540,121.29076 L 548.57143,112.00505 L 551.42857,118.79076 L 560,119.50505 L 566.07143,135.57647 L 558.57143,151.29076 L 573.21428,171.29076 L 573.92857,181.6479 L 582.14285,185.57647 L 590.71428,180.21933 L 601.78571,187.71933 L 598.57142,201.6479 L 601.07142,205.21933 L 595.71428,210.93362 L 596.07142,225.57647 L 607.85714,237.00504 L 607.5,252.36219 L 600.71428,258.43362 L 594.64285,254.50504 L 590,263.07647 L 575.35714,265.93362 L 566.07143,275.21933 L 563.92857,278.43362 L 544.28571,284.1479 L 542.14285,290.21933 L 535.35714,299.1479 L 531.42857,294.1479 L 526.42857,298.43362 L 517.85714,298.43362 L 515.71428,303.43362 L 507.85714,305.21933 L 499.64285,309.86219 L 491.42857,309.86219 L 491.07143,303.79076 L 485.71428,297.71933 L 478.92857,304.86219 L 471.07143,303.07647 L 465,310.93362 L 462.14285,315.57647 L 463.92857,307.71933 L 460.71428,307.00504 L 459.28571,304.1479 L 449.28571,305.57647 L 443.57143,309.1479 L 438.92857,309.1479 L 437.14285,317.00504 L 430.35714,317.36219 L 424.64285,312.36219 L 417.5,317.00504 L 408.21428,309.86219 L 402.5,315.93362 L 398.57143,312.36219 L 390.35714,315.93362 L 382.14285,314.1479 L 382.5,309.86219 L 377.85714,308.43362 L 378.92857,301.6479 L 373.92857,307.36219 L 366.78571,305.93362 L 360.71428,298.07647 L 351.07143,296.6479 L 350,299.50504 L 343.95694,299.79854 L 340.42141,296.76808 L 333.85541,301.31377 L 329.8148,296.26301 L 333.35034,289.19194 L 329.8148,289.19194 L 329.8148,279.59549 L 325.77419,279.59549 L 327.28942,271.51427 L 335.37064,264.4432 L 339.41125,264.4432 L 345.97724,267.97874 L 353.04831,263.43305 L 361.12953,263.93813 L 365.67522,259.39244 L 366.68537,237.67416 L 363.65491,237.67416 L 359.6143,226.05741 L 358.09907,208.37974 L 363.65491,200.80359 L 363.65491,194.74268 L 354.05846,192.2173 L 351.53308,185.14623 L 351.53308,173.0244 L 343.45186,168.98379 z M 517.14285,134.50505 L 524.28571,137.71933 L 527.14285,125.93362 L 519.28571,129.50505 L 517.14285,134.50505 z "
       style="fill: rgba(200, 200, 200, 0.5); fill-opacity: 1; fill-rule: evenodd; stroke: rgb(95, 95, 95); stroke-width: 1; stroke-linecap: butt; stroke-linejoin: miter; stroke-miterlimit: 4; stroke-dasharray: none; stroke-opacity: 1;"
       id="path2184" />
    <path
       d="M 601.07142,205.21933 L 608.21428,202.71933 L 615.35714,205.21933 L 627.85714,204.86219 L 628.57142,198.79076 L 647.85714,205.21933 L 653.57142,195.21933 L 659.28571,195.93362 L 664.28571,189.1479 L 671.78571,189.86219 L 684.64285,203.07647 L 684.28571,218.79076 L 708.92857,229.86219 L 709.28571,234.50504 L 723.57142,236.29076 L 734.28571,233.79076 L 741.42857,237.71933 L 740,243.07647 L 742.14285,248.43362 L 754.64285,242.36219 L 761.78571,251.6479 L 759.28571,257.36219 L 753.57142,257.36219 L 749.64285,264.50504 L 755.71428,267.00504 L 755,273.07647 L 750,271.29076 L 745.71428,273.07647 L 750.35714,277.36219 L 747.85714,281.29076 L 748.21428,286.29076 L 740.71428,285.57647 L 740.71428,290.21933 L 737.14285,297.36219 L 743.21428,300.21933 L 738.57142,305.21933 L 740.71428,311.29076 L 728.21428,328.07647 L 729.64285,332.00504 L 735.35714,326.29076 L 738.57142,329.86219 L 730.35714,342.00504 L 729.64285,350.21933 L 723.21428,347.71933 L 718.57142,359.86219 L 710,364.86219 L 707.85714,376.29076 L 712.85714,386.29076 L 722.14285,389.86219 L 711.07142,392.00504 L 710.35714,399.86219 L 696.78571,404.86219 L 686.07142,409.50504 L 678.92857,411.6479 L 677.5,418.43362 L 667.14285,425.57647 L 666.07142,422.36219 L 662.5,419.1479 L 662.5,423.07647 L 658.21428,427.00504 L 650.71428,427.00504 L 644.64285,421.6479 L 642.85714,416.29076 L 641.07142,418.07647 L 632.85714,417.71933 L 623.21428,424.86219 L 622.85714,429.86219 L 614.28571,424.1479 L 609.64285,430.21933 L 604.64285,429.86219 L 603.92857,425.93362 L 601.42857,429.50504 L 586.78571,427.71933 L 587.14285,432.00504 L 590.35714,436.6479 L 586.42857,439.1479 L 577.14285,437.00504 L 569.28571,430.93362 L 573.21428,422.00504 L 568.92857,418.43362 L 571.42857,410.57647 L 571.42857,398.43362 L 576.42857,399.1479 L 579.64285,390.57647 L 576.07143,390.21933 L 578.21428,374.50504 L 582.5,367.36219 L 581.78571,363.43362 L 586.42857,365.93362 L 590,356.6479 L 587.85714,349.50504 L 577.5,349.50504 L 576.07143,345.57647 L 565,350.21933 L 561.07143,345.57647 L 557.14285,347.71933 L 551.07143,335.57647 L 562.14285,328.07647 L 561.42857,320.57647 L 570,314.50504 L 573.21428,314.50504 L 571.07143,304.50504 L 573.57143,306.6479 L 577.14285,306.6479 L 580.71428,303.43362 L 570.71428,292.71933 L 561.07143,292.71933 L 562.14285,303.07647 L 556.42857,307.00504 L 552.85714,303.43362 L 546.07143,305.21933 L 542.14285,298.07647 L 535.35714,299.1479 L 542.14285,290.21933 L 544.28571,284.1479 L 563.92857,278.43362 L 566.07143,275.21933 L 575.35714,265.93362 L 590,263.07647 L 594.64285,254.50504 L 600.71428,258.43362 L 607.5,252.36219 L 607.85714,237.00504 L 596.07142,225.57647 L 595.71428,210.93362 L 601.07142,205.21933 z "
       style="fill: rgba(200, 200, 200, 0.5); fill-opacity: 1; fill-rule: evenodd; stroke: rgb(95, 95, 95); stroke-width: 1; stroke-linecap: butt; stroke-linejoin: miter; stroke-miterlimit: 4; stroke-dasharray: none; stroke-opacity: 1;"
       id="path2198" />
    <path
       d="M 490,743.07647 L 499.28571,747.36218 L 501.78571,745.21933 L 506.42857,754.1479 L 512.5,756.29076 L 514.64285,763.79076 L 511.78571,769.1479 L 508.21428,781.29076 L 503.92857,781.29076 L 506.78571,789.50504 L 510,790.93361 L 510,798.43361 L 513.21428,801.29076 L 509.64285,801.6479 L 508.21428,807.71933 L 506.07143,811.29076 L 523.21428,813.43361 L 531.42857,808.07647 L 537.5,807.00504 L 540.71428,797.00504 L 542.5,785.93361 L 551.07143,780.93361 L 550.35714,778.07647 L 554.28571,778.07647 L 561.07143,772.36218 L 556.78571,768.79076 L 562.5,760.57647 L 570,758.43361 L 575.71428,757.71933 L 570.35714,750.21933 L 571.42857,740.93361 L 567.85714,740.57647 L 560.71428,732.71933 L 557.5,730.93361 L 550,734.86218 L 545.71428,732.71933 L 547.85714,728.07647 L 537.85714,713.43361 L 541.78571,712.71933 L 543.92857,706.6479 L 547.5,709.50504 L 553.57143,704.1479 L 559.64285,693.07647 L 558.21428,682.36218 L 561.78571,674.50504 L 561.07143,681.29076 L 563.57143,686.29076 L 574.28571,684.1479 L 583.57142,687.00504 L 602.85714,683.79076 L 604.28571,678.79076 L 614.64285,679.86218 L 615.71428,676.29076 L 608.92857,669.50504 L 616.42857,667.71933 L 618.92857,662.00504 L 607.85714,648.07647 L 608.21428,640.21933 L 604.64285,636.29076 L 597.5,635.57647 L 602.5,630.93361 L 606.07142,634.50504 L 612.85714,630.21933 L 608.92857,626.29076 L 618.21428,622.71933 L 620.71428,625.93361 L 633.21428,616.29076 L 647.5,606.29076 L 646.07142,595.57647 L 640,593.43361 L 634.64285,598.43361 L 632.85714,595.57647 L 635.35714,592.00504 L 641.07142,589.50504 L 647.5,584.86219 L 643.21428,579.86219 L 649.28571,572.71933 L 646.53844,566.99129 L 644.28571,565.21933 L 639.64285,568.07647 L 636.07142,564.1479 L 621.78571,574.1479 L 616.42857,568.79076 L 618.21428,560.93361 L 605.35714,559.50504 L 602.14285,552.71933 L 605,550.93361 L 605,545.21933 L 594.28571,527.36219 L 590.35714,528.43361 L 588.21428,532.71933 L 583.57142,527.71933 L 584.28571,523.07647 L 579.28571,525.21933 L 576.78571,518.43361 L 580.35714,514.1479 L 570.71428,516.6479 L 566.07143,507.36219 L 557.5,506.29076 L 556.42857,498.43361 L 550.35714,485.21933 L 542.85714,479.1479 L 542.85714,475.57647 L 538.21428,470.93361 L 537.85714,462.36219 L 532.85714,458.79076 L 527.5,460.21933 L 523.92857,467.36219 L 517.85714,466.6479 L 514.64285,469.1479 L 496.07143,474.86219 L 492.14285,474.86219 L 488.21428,483.07647 C 488.21428,483.07647 485.71428,479.86219 485.71428,478.43361 C 485.71428,477.00504 479.64285,478.79076 479.64285,478.79076 L 475.35714,482.71933 L 471.78571,473.79076 L 466.07143,477.00504 L 465,480.93361 L 456.78571,475.21933 L 451.78571,477.00504 L 452.85714,487.36219 L 457.5,491.29076 L 449.64285,495.21933 L 439.64285,491.29076 L 430.35714,496.6479 L 431.42857,503.07647 L 431.42857,510.21932 L 427.14286,513.07647 L 427.14286,521.6479 L 435,522.36218 L 436.42857,530.21932 L 430.71429,540.21932 L 436.42857,549.50504 L 442.85714,549.50504 L 438.57143,559.50504 L 434.28571,563.07647 L 438.57143,568.07647 L 432.85714,573.79075 L 435,585.93361 L 435.71429,592.36218 L 419.28571,597.36218 L 412.85714,591.6479 L 405,591.6479 L 402.85714,599.50504 L 384.28571,596.6479 L 382.85714,604.50504 L 369.28571,610.21933 L 355,622.36218 L 370,631.6479 L 377.14286,626.6479 L 385,630.93361 L 382.85714,639.50504 L 382.85714,649.50504 L 375,658.79075 L 381.42857,663.79075 L 385.71429,674.50504 L 380.71429,678.07647 L 382.85714,695.93361 L 387.14286,705.21933 L 387.85714,726.6479 L 396.42857,745.21933 L 393.57143,750.93361 L 400.71428,750.93361 L 405.71428,747.36218 L 415.71428,747.36218 L 422.85714,739.50504 L 428.57143,739.50504 L 434.28571,731.6479 L 446.42857,731.6479 L 462.14285,726.6479 L 461.42857,713.07647 L 464.28571,702.36218 L 460.71428,701.6479 L 464.28571,686.6479 L 477.85714,679.50504 L 481.42857,669.50504 L 490.71428,663.79076 L 495.71428,656.6479 L 500,663.79076 L 510.71428,663.07647 L 511.42857,668.07647 L 515.71428,668.07647 L 509.28571,675.21933 L 510.71428,690.93361 L 505,683.79076 L 500.71428,684.50504 L 502.14285,697.36218 L 497.14285,697.36218 L 496.42857,703.79076 L 501.42857,706.6479 L 502.14285,712.36218 L 497.14285,713.07647 L 495,727.36218 L 490,733.79076 L 489.28571,739.50504 L 490,743.07647 z "
       style="fill: rgba(200, 200, 200, 0.5); fill-opacity: 1; fill-rule: evenodd; stroke: rgb(95, 95, 95); stroke-width: 1; stroke-linecap: butt; stroke-linejoin: miter; stroke-miterlimit: 4; stroke-dasharray: none; stroke-opacity: 1;"
       id="path2248" />
    <path
       d="M 537.5,807.00504 L 543.96714,808.15781 L 547.75521,815.48141 L 562.9075,824.06771 L 569.72603,821.54233 L 579.32248,836.44208 L 578.56487,843.51315 L 585.63593,844.27076 L 586.89862,840.48269 L 589.17147,843.00807 L 591.19177,851.59437 L 611.39482,853.36213 L 617.2032,849.06898 L 634.37579,866.99919 L 627.30473,876.84818 L 629.32503,884.9294 L 636.90118,882.15148 L 639.42656,875.83803 L 653.06362,883.16163 L 660.38722,890.99031 L 663.41768,902.10199 L 667.96337,901.84945 L 664.42783,908.92052 L 671.4989,914.7289 L 671.4989,918.76951 L 666.1956,922.81012 L 671.4989,926.85073 L 670.74129,931.14388 L 676.29712,927.35581 L 691.70195,923.3152 L 694.22733,917.75936 L 705.84409,920.53728 L 709.63216,926.59819 L 712.91515,921.29489 L 711.14739,917.00174 L 721.50145,907.15276 L 734.3809,912.45606 L 746.50273,911.69844 L 748.52303,905.13245 L 753.06872,902.10199 L 758.87709,907.65783 L 767.46339,907.65783 L 778.06999,897.05123 L 778.06999,890.99031 L 772.51415,891.49539 L 772.51415,887.20224 L 780.0903,882.40402 L 782.1106,871.54488 L 787.4139,870.78726 L 787.4139,860.68574 L 776.8073,855.63498 L 776.30223,849.06898 L 782.1106,841.49284 L 775.29207,833.41162 L 770.99893,837.45223 L 765.94816,835.43192 L 766.70578,825.07786 L 755.08902,806.1375 L 746.50273,808.41034 L 742.20958,788.96491 L 746.50273,782.90399 L 745.49257,775.07531 L 751.55349,776.08546 L 753.82633,771.79232 L 740.69435,764.46871 L 746.75526,757.39764 L 751.04841,747.29612 L 750.79587,737.9522 L 758.87709,736.68951 L 760.64486,733.40652 L 767.21085,731.13368 L 767.21085,725.83037 L 762.66517,723.05246 L 761.65501,717.24408 L 771.504,710.67809 L 775.03954,701.08164 L 770.24131,697.79864 L 771.25146,693.50549 L 778.32253,688.95981 L 780.0903,675.82782 L 797.51543,667.49407 L 798.27304,650.32147 L 813.67787,645.77579 L 816.20325,634.66411 L 810.64741,636.17934 L 811.9101,616.98644 L 809.8898,591.48009 L 801.55604,587.69201 L 801.55604,585.16663 L 796.25274,585.92425 L 789.93929,582.64125 L 787.16137,585.41917 L 769.4837,578.60064 L 767.46339,586.9344 L 772.51415,589.71232 L 766.70578,607.13745 L 776.04969,606.63237 L 773.52431,611.93568 L 757.10933,614.20852 L 756.09918,617.49151 L 754.83648,614.20852 L 743.72481,611.4306 L 740.44181,617.49151 L 732.36059,613.70344 L 740.94689,598.80369 L 732.61313,595.26816 L 731.0979,579.35826 L 734.12836,577.33795 L 734.12836,574.81257 L 719.98622,576.58034 L 709.8847,571.0245 L 697.76287,558.39759 L 688.41896,563.95343 L 680.0852,557.1349 L 677.05474,548.5486 L 665.94306,555.36713 L 654.83138,546.02322 L 649.78062,549.30622 L 649.52808,554.35698 L 653.56869,554.35698 L 656.34661,558.14505 L 646.53844,566.99129 L 649.28571,572.71933 L 643.21428,579.86219 L 647.5,584.86219 L 641.07142,589.50504 L 635.35714,592.00504 L 632.85714,595.57647 L 634.64285,598.43361 L 640,593.43361 L 646.07142,595.57647 L 647.5,606.29076 L 633.21428,616.29076 L 620.71428,625.93361 L 618.21428,622.71933 L 608.92857,626.29076 L 612.85714,630.21933 L 606.07142,634.50504 L 602.5,630.93361 L 597.5,635.57647 L 604.64285,636.29076 L 608.21428,640.21933 L 607.85714,648.07647 L 618.92857,662.00504 L 616.42857,667.71933 L 608.92857,669.50504 L 615.71428,676.29076 L 614.64285,679.86218 L 604.28571,678.79076 L 602.85714,683.79076 L 583.57142,687.00504 L 574.28571,684.1479 L 563.57143,686.29076 L 561.07143,681.29076 L 561.78571,674.50504 L 558.21428,682.36218 L 559.64285,693.07647 L 553.57143,704.1479 L 547.5,709.50504 L 543.92857,706.6479 L 541.78571,712.71933 L 537.85714,713.43361 L 547.85714,728.07647 L 545.71428,732.71933 L 550,734.86218 L 557.5,730.93361 L 560.71428,732.71933 L 567.85714,740.57647 L 571.42857,740.93361 L 570.35714,750.21933 L 575.71428,757.71933 L 570,758.43361 L 562.5,760.57647 L 556.78571,768.79076 L 561.07143,772.36218 L 554.28571,778.07647 L 550.35714,778.07647 L 551.07143,780.93361 L 542.5,785.93361 L 540.71428,797.00504 L 537.5,807.00504 z "
       style="fill: rgba(200, 200, 200, 0.5); fill-opacity: 1; fill-rule: evenodd; stroke: rgb(95, 95, 95); stroke-width: 1; stroke-linecap: butt; stroke-linejoin: miter; stroke-miterlimit: 4; stroke-dasharray: none; stroke-opacity: 1;"
       id="path2268" />
    <path
       d="M 813.67787,645.77579 L 815.71428,653.79076 L 823.57142,657.71933 L 828.21428,655.57647 L 829.28571,650.21933 L 839.99999,653.07647 L 838.92857,657.71933 L 840.71428,658.79076 L 838.21428,664.86218 L 843.92857,665.93361 L 849.64285,663.43361 L 848.57142,657.71933 L 844.28571,656.6479 L 846.78571,653.07647 L 845.35714,649.50504 L 857.85714,644.86219 L 855.71428,634.1479 L 851.42857,628.07647 L 859.28571,622.00504 L 862.49999,615.21933 L 884.28571,605.21933 L 881.07142,601.29076 L 888.21428,586.6479 L 893.57142,586.29076 L 901.42857,593.07647 L 913.92857,584.50504 L 911.07142,575.93361 L 902.85714,570.57647 L 897.14285,560.57647 L 903.92857,550.57647 L 902.49999,545.57647 L 904.64285,539.50504 L 902.85714,530.93361 L 895.35714,529.1479 L 895.71428,518.43361 L 886.07142,512.71933 L 881.78571,515.21933 L 876.07142,511.6479 L 863.57142,515.93361 L 859.28571,505.93361 L 853.92857,503.79076 L 857.14285,499.1479 L 851.07142,497.00504 L 851.42857,490.21933 L 857.49999,486.6479 L 863.92857,477.00504 L 868.57142,477.00504 L 868.57142,470.93361 L 875.71428,463.07647 L 872.14285,460.93361 L 867.49999,463.07647 L 854.28571,460.21933 L 853.21428,464.50504 L 849.99999,463.07647 L 851.07142,458.43361 L 847.49999,455.21933 L 852.49999,452.36219 L 846.07142,442.71933 L 840.35714,439.1479 L 834.64285,424.50504 L 828.57142,422.36219 L 822.49999,424.50504 L 814.99999,420.93362 L 813.21428,425.93362 L 811.78571,420.21933 L 813.57142,414.50504 L 807.14285,409.1479 L 796.78571,410.93362 L 793.57142,407.00504 L 781.07142,412.71933 L 775,412.00504 L 779.64285,418.79076 L 772.85714,429.86219 L 766.07142,425.93362 L 754.64285,428.07647 L 749.28571,418.07647 L 741.07142,413.79076 L 735.71428,416.29076 L 726.42857,415.21933 L 719.28571,410.93362 L 724.64285,400.21933 L 721.78571,394.86219 L 723.57142,392.00504 L 722.14285,389.86219 L 711.07142,392.00504 L 710.35714,399.86219 L 696.78571,404.86219 L 686.07142,409.50504 L 678.92857,411.6479 L 677.5,418.43362 L 667.14285,425.57647 L 666.07142,422.36219 L 662.5,419.1479 L 662.5,423.07647 L 658.21428,427.00504 L 650.71428,427.00504 L 644.64285,421.6479 L 642.85714,416.29076 L 641.07142,418.07647 L 632.85714,417.71933 L 623.21428,424.86219 L 622.85714,429.86219 L 614.28571,424.1479 L 609.64285,430.21933 L 604.64285,429.86219 L 603.92857,425.93362 L 601.42857,429.50504 L 586.78571,427.71933 L 587.14285,432.00504 L 590.35714,436.6479 L 586.42857,439.1479 L 577.14285,437.00504 L 569.28571,430.93362 L 567.85714,435.57647 L 559.28571,433.43362 L 553.92857,427.71933 L 553.92857,420.57647 L 547.14285,416.29076 L 546.07143,423.07647 L 541.42857,423.07647 L 541.42857,432.00504 L 545.35714,432.00504 L 546.78571,437.36219 L 541.07143,438.43361 L 542.14285,452.00504 L 539.28571,455.21933 L 537.85714,462.36219 L 538.21428,470.93361 L 542.85714,475.57647 L 542.85714,479.1479 L 550.35714,485.21933 L 556.42857,498.43361 L 557.5,506.29076 L 566.07143,507.36219 L 570.71428,516.6479 L 580.35714,514.1479 L 576.78571,518.43361 L 579.28571,525.21933 L 584.28571,523.07647 L 583.57142,527.71933 L 588.21428,532.71933 L 590.35714,528.43361 L 594.28571,527.36219 L 605,545.21933 L 605,550.93361 L 602.14285,552.71933 L 605.35714,559.50504 L 618.21428,560.93361 L 616.42857,568.79076 L 621.78571,574.1479 L 636.07142,564.1479 L 639.64285,568.07647 L 644.28571,565.21933 L 646.53844,566.99129 L 656.34661,558.14505 L 653.56869,554.35698 L 649.52808,554.35698 L 649.78062,549.30622 L 654.83138,546.02322 L 665.94306,555.36713 L 677.05474,548.5486 L 680.0852,557.1349 L 688.41896,563.95343 L 697.76287,558.39759 L 709.8847,571.0245 L 719.98622,576.58034 L 734.12836,574.81257 L 734.12836,577.33795 L 731.0979,579.35826 L 732.61313,595.26816 L 740.94689,598.80369 L 732.36059,613.70344 L 740.44181,617.49151 L 743.72481,611.4306 L 754.83648,614.20852 L 756.09918,617.49151 L 757.10933,614.20852 L 773.52431,611.93568 L 776.04969,606.63237 L 766.70578,607.13745 L 772.51415,589.71232 L 767.46339,586.9344 L 769.4837,578.60064 L 787.16137,585.41917 L 789.93929,582.64125 L 796.25274,585.92425 L 801.55604,585.16663 L 801.55604,587.69201 L 809.8898,591.48009 L 811.9101,616.98644 L 810.64741,636.17934 L 816.20325,634.66411 L 813.67787,645.77579 z "
       style="fill: rgba(200, 200, 200, 0.5); fill-opacity: 1; fill-rule: evenodd; stroke: rgb(95, 95, 95); stroke-width: 1; stroke-linecap: butt; stroke-linejoin: miter; stroke-miterlimit: 4; stroke-dasharray: none; stroke-opacity: 1;"
       id="path2275" />
    <path
       d="M 569.28571,430.93362 L 567.85714,435.57647 L 559.28571,433.43362 L 553.92857,427.71933 L 553.92857,420.57647 L 547.14285,416.29076 L 541.07143,409.86219 L 534.64285,410.57647 L 522.85714,419.50504 L 517.85714,417.00504 L 518.57143,408.43362 L 515,406.6479 L 512.5,410.57647 L 497.85714,411.29076 L 497.14285,406.29076 L 492.5,406.29076 L 488.57143,397.71933 L 476.07143,393.07647 L 467.85714,400.57647 L 454.64285,400.57647 L 448.21428,396.6479 L 447.5,402.71933 L 446.07143,406.6479 L 451.07143,414.50504 L 447.14285,419.86219 L 437.5,420.93362 L 435.35714,411.29076 L 429.64285,418.79076 L 419.28571,421.6479 L 417.85714,426.6479 L 410.35714,421.6479 L 410,415.21933 L 401.42857,415.57647 L 390.71428,423.79076 L 378.21428,425.21933 L 378.57143,431.6479 L 372.14285,431.29076 L 368.21428,424.50504 L 365.71428,426.29076 L 367.14285,429.50504 L 362.85714,429.50504 L 356.78571,439.1479 L 348.92857,437.71933 L 344.64286,442.36219 L 335.71428,435.57647 L 330,434.50504 L 321.42857,425.93362 L 316.78571,425.93362 L 316.78571,430.57647 L 311.78571,432.36219 L 303.57143,434.50504 L 299.28571,433.07647 L 292.14286,438.07647 L 272.14286,443.79075 L 259.28571,439.50504 L 251.42857,432.36218 L 252.85714,423.07647 L 257.5889,425.05746 L 265.16504,426.06761 L 267.69042,423.03715 L 263.64981,417.98639 L 263.64981,413.4407 L 267.69042,404.85441 L 272.23611,404.85441 L 271.22596,409.90517 L 278.8021,409.90517 L 280.31733,404.34933 L 284.35794,408.89502 L 286.88332,403.84425 L 293.44931,403.33918 L 300.0153,391.21735 L 300.0153,383.13613 L 290.92393,383.13613 L 297.48992,367.47876 L 302.54069,366.97369 L 304.05591,360.91277 L 299.00515,354.34678 L 302.54069,354.34678 L 306.07622,342.73002 L 316.68282,348.28586 L 320.21835,339.19449 L 322.74374,336.66911 L 318.19805,328.08281 L 322.23866,318.99144 L 330.82496,322.52697 L 341.93663,313.4356 L 338.4011,308.88991 L 342.94679,306.36453 L 343.95694,299.79854 L 350,299.50504 L 351.07143,296.6479 L 360.71428,298.07647 L 366.78571,305.93362 L 373.92857,307.36219 L 378.92857,301.6479 L 377.85714,308.43362 L 382.5,309.86219 L 382.14285,314.1479 L 390.35714,315.93362 L 398.57143,312.36219 L 402.5,315.93362 L 408.21428,309.86219 L 417.5,317.00504 L 424.64285,312.36219 L 430.35714,317.36219 L 437.14285,317.00504 L 438.92857,309.1479 L 443.57143,309.1479 L 449.28571,305.57647 L 459.28571,304.1479 L 460.71428,307.00504 L 463.92857,307.71933 L 462.14285,315.57647 L 465,310.93362 L 471.07143,303.07647 L 478.92857,304.86219 L 485.71428,297.71933 L 491.07143,303.79076 L 491.42857,309.86219 L 499.64285,309.86219 L 507.85714,305.21933 L 515.71428,303.43362 L 517.85714,298.43362 L 526.42857,298.43362 L 531.42857,294.1479 L 535.35714,299.1479 L 542.14285,298.07647 L 546.07143,305.21933 L 552.85714,303.43362 L 556.42857,307.00504 L 562.14285,303.07647 L 561.07143,292.71933 L 570.71428,292.71933 L 580.71428,303.43362 L 577.14285,306.6479 L 573.57143,306.6479 L 571.07143,304.50504 L 573.21428,314.50504 L 570,314.50504 L 561.42857,320.57647 L 562.14285,328.07647 L 551.07143,335.57647 L 557.14285,347.71933 L 561.07143,345.57647 L 565,350.21933 L 576.07143,345.57647 L 577.5,349.50504 L 587.85714,349.50504 L 590,356.6479 L 586.42857,365.93362 L 581.78571,363.43362 L 582.5,367.36219 L 578.21428,374.50504 L 576.07143,390.21933 L 579.64285,390.57647 L 576.42857,399.1479 L 571.42857,398.43362 L 571.42857,410.57647 L 568.92857,418.43362 L 573.21428,422.00504 L 569.28571,430.93362 z "
       style="fill: rgba(200, 200, 200, 0.5); fill-opacity: 1; fill-rule: evenodd; stroke: rgb(95, 95, 95); stroke-width: 1; stroke-linecap: butt; stroke-linejoin: miter; stroke-miterlimit: 4; stroke-dasharray: none; stroke-opacity: 1;"
       id="path2205" />
    <path
       d="M 431.42857,503.07647 L 430.35714,496.6479 L 439.64285,491.29076 L 449.64285,495.21933 L 457.5,491.29076 L 452.85714,487.36219 L 451.78571,477.00504 L 456.78571,475.21933 L 465,480.93361 L 466.07143,477.00504 L 471.78571,473.79076 L 475.35714,482.71933 L 479.64285,478.79076 C 479.64285,478.79076 485.71428,477.00504 485.71428,478.43361 C 485.71428,479.86219 488.21428,483.07647 488.21428,483.07647 L 492.14285,474.86219 L 496.07143,474.86219 L 514.64285,469.1479 L 517.85714,466.6479 L 523.92857,467.36219 L 527.5,460.21933 L 532.85714,458.79076 L 537.85714,462.36219 L 539.28571,455.21933 L 542.14285,452.00504 L 541.07143,438.43361 L 546.78571,437.36219 L 545.35714,432.00504 L 541.42857,432.00504 L 541.42857,423.07647 L 546.07143,423.07647 L 547.14285,416.29076 L 541.07143,409.86219 L 534.64285,410.57647 L 522.85714,419.50504 L 517.85714,417.00504 L 518.57143,408.43362 L 515,406.6479 L 512.5,410.57647 L 497.85714,411.29076 L 497.14285,406.29076 L 492.5,406.29076 L 488.57143,397.71933 L 476.07143,393.07647 L 467.85714,400.57647 L 454.64285,400.57647 L 448.21428,396.6479 L 447.5,402.71933 L 446.07143,406.6479 L 451.07143,414.50504 L 447.14285,419.86219 L 437.5,420.93362 L 435.35714,411.29076 L 429.64285,418.79076 L 419.28571,421.6479 L 417.85714,426.6479 L 410.35714,421.6479 L 410,415.21933 L 401.42857,415.57647 L 390.71428,423.79076 L 378.21428,425.21933 L 378.57143,431.6479 L 372.14285,431.29076 L 368.21428,424.50504 L 365.71428,426.29076 L 367.14285,429.50504 L 362.85714,429.50504 L 356.78571,439.1479 L 348.92857,437.71933 L 344.64286,442.36219 L 335.71428,435.57647 L 330,434.50504 L 321.42857,425.93362 L 316.78571,425.93362 L 316.78571,430.57647 L 311.78571,432.36219 L 303.57143,434.50504 L 306.42857,443.07647 L 305,450.93361 L 305,463.79075 L 317.14286,467.36218 L 326.42857,453.07647 L 332.14286,457.36218 L 332.85714,468.07647 L 344.28571,472.36218 L 345,480.21932 L 352.14286,481.6479 L 358.57143,488.79075 L 367.14286,492.36218 L 367.85714,502.36218 L 375.71429,493.79075 L 385,493.79075 L 405,497.36218 L 402.85714,508.07647 L 411.42857,503.07647 L 414.28571,508.79075 L 431.42857,503.07647 z "
       style="fill: rgba(200, 200, 200, 0.5); fill-opacity: 1; fill-rule: evenodd; stroke: rgb(95, 95, 95); stroke-width: 1; stroke-linecap: butt; stroke-linejoin: miter; stroke-miterlimit: 4; stroke-dasharray: none; stroke-opacity: 1;"
       id="path2229" />
    <path
       d="M 381.07143,412.00504 L 406.78571,399.1479 L 397.5,392.36219 L 399.28571,388.43362 L 404.64285,388.43362 L 401.78571,375.57647 L 389.64285,368.43362 L 393.92857,363.79076 L 392.85714,356.6479 L 384.28571,350.21933 L 378.21428,357.36219 L 369.28571,353.43362 L 354.64285,363.79076 L 357.85714,380.57647 L 348.57143,382.00504 L 344.64286,390.21933 L 352.5,393.79076 L 360,392.71933 L 367.14285,407.71933 L 377.85714,408.43362 L 381.07143,412.00504 z "
       style="fill: rgba(200, 200, 200, 0.5); fill-opacity: 1; fill-rule: evenodd; stroke: rgb(95, 95, 95); stroke-width: 1; stroke-linecap: butt; stroke-linejoin: miter; stroke-miterlimit: 4; stroke-dasharray: none; stroke-opacity: 1;"
       id="path2196" />
    <path
       d="M 775,412.00504 L 774.28192,405.61202 L 767.71593,406.87471 L 764.1804,411.67293 L 761.65501,406.87471 L 754.07887,411.4204 L 749.28065,406.1171 L 747.0078,407.63232 L 743.47227,399.04603 L 735.39105,406.87471 L 735.13851,412.17801 L 729.83521,407.63232 L 719.28571,410.93362 L 726.42857,415.21933 L 735.71428,416.29076 L 741.07142,413.79076 L 749.28571,418.07647 L 754.64285,428.07647 L 766.07142,425.93362 L 772.85714,429.86219 L 779.64285,418.79076 L 775,412.00504 z "
       style="fill: rgba(200, 200, 200, 0.5); fill-opacity: 1; fill-rule: evenodd; stroke: rgb(95, 95, 95); stroke-width: 1; stroke-linecap: butt; stroke-linejoin: miter; stroke-miterlimit: 4; stroke-dasharray: none; stroke-opacity: 1;"
       id="path2302" />
  </g>
  <path
     d="m 127.82376,304.75811 -2.69092,6.13486 -15.34549,0.55036 -5.6094,2.65346 -9.428051,14.82657 -11.52248,-4.63269 -7.07107,-10.10153 3.53553,-1.51523 -3.03046,-5.05076 8.08122,-3.53554 5.05077,4.54569 6.56599,-3.03046 0,-2.52538 11.616751,-4.04061 -5.05076,-8.58629 14.14214,-6.06092 4.54568,1.51523 0,9.59645 4.21743,1.76327 -2.7022,3.79257 4.69532,3.70095 z"
     style="fill:#d5d5d5;fill-opacity:1;fill-rule:evenodd;stroke:#5f5f5f;stroke-width:2;stroke-linecap:butt;stroke-linejoin:miter;stroke-miterlimit:4;stroke-opacity:1;stroke-dasharray:none;display:inline"
     id="path2624-1"
     />
</svg>
