<?xml version="1.0" encoding="UTF-8" standalone="no"?>
<!-- Created with Inkscape (http://www.inkscape.org/) -->

<svg
   xmlns:dc="http://purl.org/dc/elements/1.1/"
   xmlns:cc="http://creativecommons.org/ns#"
   xmlns:rdf="http://www.w3.org/1999/02/22-rdf-syntax-ns#"
   xmlns:svg="http://www.w3.org/2000/svg"
   xmlns="http://www.w3.org/2000/svg"
   xmlns:sodipodi="http://sodipodi.sourceforge.net/DTD/sodipodi-0.dtd"
   xmlns:inkscape="http://www.inkscape.org/namespaces/inkscape"
   version="1.0"
   viewBox="0 0 1014 828"
   id="map-belgium-outline"
   sodipodi:version="0.32"
   inkscape:version="0.92.2 (5c3e80d, 2017-08-06)"
   sodipodi:docname="outline.svg"
   inkscape:output_extension="org.inkscape.output.svg.inkscape">
  <metadata
     id="metadata129">
    <rdf:RDF>
      <cc:Work
         rdf:about="">
        <dc:format>image/svg+xml</dc:format>
        <dc:type
           rdf:resource="http://purl.org/dc/dcmitype/StillImage" />
        <dc:title></dc:title>
      </cc:Work>
    </rdf:RDF>
  </metadata>
  <sodipodi:namedview
     inkscape:window-height="1017"
     inkscape:window-width="1920"
     inkscape:pageshadow="2"
     inkscape:pageopacity="0.0"
     guidetolerance="10.0"
     gridtolerance="10.0"
     objecttolerance="10.0"
     borderopacity="1.0"
     bordercolor="#666666"
     pagecolor="#ffffff"
     id="base"
     inkscape:zoom="0.91062802"
     inkscape:cx="523.06931"
     inkscape:cy="403.7003"
     inkscape:window-x="-8"
     inkscape:window-y="-8"
     inkscape:current-layer="svg2584"
     showgrid="false"
     inkscape:window-maximized="1" />
  <defs
     id="defs2586">
    <inkscape:perspective
       sodipodi:type="inkscape:persp3d"
       inkscape:vp_x="0 : 414 : 1"
       inkscape:vp_y="0 : 1000 : 0"
       inkscape:vp_z="1014 : 414 : 1"
       inkscape:persp3d-origin="507 : 276 : 1"
       id="perspective20" />
    <inkscape:perspective
       id="perspective2826"
       inkscape:persp3d-origin="0.5 : 0.33333333 : 1"
       inkscape:vp_z="1 : 0.5 : 1"
       inkscape:vp_y="0 : 1000 : 0"
       inkscape:vp_x="0 : 0.5 : 1"
       sodipodi:type="inkscape:persp3d" />
  </defs>
  <g
     transform="translate(98.4797, -104.219)"
     style="display: inline;"
     id="layer1" />
  <path
     d="M 0 -15.375 L 0 828 L 1049.8242 828 L 1049.8242 -15.375 L 0 -15.375 z M 581.28711 -0.087890625 L 590.92969 6.3417969 L 593.07227 10.269531 L 597 10.626953 L 595.57227 21.341797 L 593.78711 24.199219 L 594.5 35.626953 L 582.71484 30.626953 L 578.07227 30.626953 L 579.5 37.412109 L 583.78711 39.554688 L 597.35742 36.699219 L 602.71484 40.269531 L 608.78711 36.699219 L 618.42969 46.699219 L 641.28711 20.626953 L 638.78711 15.984375 L 647.35742 6.6992188 L 650.21484 13.484375 L 658.78711 14.199219 L 664.85742 30.269531 L 657.35742 45.984375 L 672 65.984375 L 672.71484 76.341797 L 680.92969 80.269531 L 689.5 74.912109 L 700.57227 82.412109 L 697.35742 96.341797 L 699.85742 99.912109 L 707 97.412109 L 714.14258 99.912109 L 726.64258 99.554688 L 727.35742 93.484375 L 746.64258 99.912109 L 752.35742 89.912109 L 758.07227 90.626953 L 763.07227 83.841797 L 770.57227 84.554688 L 783.42969 97.769531 L 783.07227 113.48438 L 807.71484 124.55469 L 808.07227 129.19727 L 822.35742 130.98438 L 833.07227 128.48438 L 840.21484 132.41211 L 838.78711 137.76953 L 840.92969 143.12695 L 853.42969 137.05469 L 860.57227 146.3418 L 858.07227 152.05469 L 852.35742 152.05469 L 848.42969 159.19727 L 854.5 161.69727 L 853.78711 167.76953 L 848.78711 165.98438 L 844.5 167.76953 L 849.14258 172.05469 L 846.64258 175.98438 L 847 180.98438 L 839.5 180.26953 L 839.5 184.91211 L 835.92969 192.05469 L 842 194.91211 L 837.35742 199.91211 L 839.5 205.98438 L 827 222.76953 L 828.42969 226.69727 L 834.14258 220.98438 L 837.35742 224.55469 L 829.14258 236.69727 L 828.42969 244.91211 L 822 242.41211 L 817.35742 254.55469 L 808.78711 259.55469 L 806.64258 270.98438 L 811.64258 280.98438 L 820.92969 284.55469 L 822.35742 286.69727 L 820.57227 289.55469 L 823.42969 294.91211 L 818.07227 305.62695 L 828.62109 302.32617 L 833.92578 306.87109 L 834.17773 301.56836 L 842.25781 293.73828 L 845.79492 302.32617 L 848.06641 300.81055 L 852.86523 306.11328 L 860.44141 301.56836 L 862.9668 306.36523 L 866.50195 301.56836 L 873.06836 300.30469 L 873.78711 306.69727 L 879.85742 307.41211 L 892.35742 301.69727 L 895.57227 305.62695 L 905.92969 303.8418 L 912.35742 309.19727 L 910.57227 314.91211 L 912 320.62695 L 913.78711 315.62695 L 921.28711 319.19727 L 927.35742 317.05469 L 933.42969 319.19727 L 939.14258 333.8418 L 944.85742 337.41211 L 951.28711 347.05469 L 946.28711 349.91211 L 949.85742 353.12695 L 948.78711 357.76953 L 952 359.19727 L 953.07227 354.91211 L 966.28711 357.76953 L 970.92969 355.62695 L 974.5 357.76953 L 967.35742 365.62695 L 967.35742 371.69727 L 962.71484 371.69727 L 956.28711 381.3418 L 950.21484 384.91211 L 949.85742 391.69727 L 955.92969 393.8418 L 952.71484 398.48438 L 958.07227 400.62695 L 962.35742 410.62695 L 974.85742 406.3418 L 980.57227 409.91211 L 984.85742 407.41211 L 994.5 413.12695 L 994.14258 423.8418 L 1001.6426 425.62695 L 1003.4297 434.19727 L 1001.2871 440.26953 L 1002.7148 445.26953 L 995.92969 455.26953 L 1001.6426 465.26953 L 1009.8574 470.62695 L 1012.7148 479.19727 L 1000.2148 487.76953 L 992.35742 480.98438 L 987 481.3418 L 979.85742 495.98438 L 983.07227 499.91211 L 961.28711 509.91211 L 958.07227 516.69727 L 950.21484 522.76953 L 954.5 528.8418 L 956.64258 539.55469 L 944.14258 544.19727 L 945.57227 547.76953 L 943.07227 551.3418 L 947.35742 552.41211 L 948.42969 558.12695 L 942.71484 560.62695 L 937 559.55469 L 939.5 553.48438 L 937.71484 552.41211 L 938.78711 547.76953 L 928.07227 544.91211 L 927 550.26953 L 922.35742 552.41211 L 914.5 548.48438 L 912.46484 540.46875 L 897.05859 545.01562 L 896.30273 562.1875 L 878.87695 570.52148 L 877.10938 583.65234 L 870.03711 588.19922 L 869.02734 592.49219 L 873.82617 595.77539 L 870.29102 605.37109 L 860.44141 611.9375 L 861.45117 617.74609 L 865.99805 620.52344 L 865.99805 625.82617 L 859.43164 628.09961 L 857.66406 631.38281 L 849.58203 632.64453 L 849.83398 641.99023 L 845.54102 652.0918 L 839.48047 659.16211 L 852.61328 666.48633 L 850.33984 670.7793 L 844.2793 669.76758 L 845.28906 677.59766 L 840.99609 683.6582 L 845.28906 703.10352 L 853.875 700.83008 L 865.49219 719.77148 L 864.73438 730.125 L 869.78516 732.14453 L 874.07812 728.10547 L 880.89648 736.18555 L 875.08789 743.76172 L 875.59375 750.32812 L 886.20117 755.37891 L 886.20117 765.48047 L 880.89648 766.23828 L 878.87695 777.09766 L 871.30078 781.89453 L 871.30078 786.18945 L 876.85547 785.68359 L 876.85547 791.74414 L 866.25 802.35156 L 857.66406 802.35156 L 851.85547 796.79492 L 847.30859 799.82617 L 845.28906 806.39258 L 833.16797 807.14844 L 820.28711 801.8457 L 809.93359 811.69531 L 811.70117 815.98828 L 808.41797 821.29102 L 804.63086 815.23047 L 793.01367 812.45312 L 790.48828 818.00781 L 775.08398 822.04883 L 769.52734 825.83789 L 770.28516 821.54297 L 764.98242 817.50391 L 770.28516 813.46289 L 770.28516 809.42188 L 763.21484 803.61328 L 766.75 796.54297 L 762.20312 796.79492 L 759.17383 785.68359 L 751.84961 777.85547 L 738.21289 770.53125 L 735.6875 776.84375 L 728.11133 779.62305 L 726.0918 771.54102 L 733.16211 761.69336 L 715.99023 743.76172 L 710.18164 748.05469 L 689.97852 746.28711 L 687.95703 737.70117 L 685.68555 735.17578 L 684.42188 738.96484 L 677.35156 738.20703 L 678.10938 731.13477 L 668.51172 716.23633 L 661.69336 718.76172 L 646.54102 710.17383 L 642.75391 702.85156 L 636.28711 701.69727 L 630.21484 702.76953 L 622 708.12695 L 604.85742 705.98438 L 607 702.41211 L 608.42969 696.3418 L 612 695.98438 L 608.78711 693.12695 L 608.78711 685.62695 L 605.57227 684.19727 L 602.71484 675.98438 L 607 675.98438 L 610.57227 663.8418 L 613.42969 658.48438 L 611.28711 650.98438 L 605.21484 648.8418 L 600.57227 639.91211 L 598.07227 642.05469 L 588.78711 637.76953 L 588.07227 634.19727 L 588.78711 628.48438 L 593.78711 622.05469 L 595.92969 607.76953 L 600.92969 607.05469 L 600.21484 601.3418 L 595.21484 598.48438 L 595.92969 592.05469 L 600.92969 592.05469 L 599.5 579.19727 L 603.78711 578.48438 L 609.5 585.62695 L 608.07227 569.91211 L 614.5 562.76953 L 610.21484 562.76953 L 609.5 557.76953 L 598.78711 558.48438 L 594.5 551.3418 L 589.5 558.48438 L 580.21484 564.19727 L 576.64258 574.19727 L 563.07227 581.3418 L 559.5 596.3418 L 563.07227 597.05469 L 560.21484 607.76953 L 560.92969 621.3418 L 545.21484 626.3418 L 533.07227 626.3418 L 527.35742 634.19727 L 521.64258 634.19727 L 514.5 642.05469 L 504.5 642.05469 L 499.5 645.62695 L 492.35742 645.62695 L 458.07227 632.76953 L 430.92969 637.05469 L 418.07227 630.62695 L 421.64258 622.05469 L 413.78711 614.19727 L 418.78711 601.3418 L 429.5 602.05469 L 438.78711 592.76953 L 430.92969 579.19727 L 430.21484 566.3418 L 417.35742 567.76953 L 410.92969 564.91211 L 419.5 554.91211 L 418.78711 533.48438 L 434.5 521.3418 L 434.5 510.62695 L 421.64258 502.76953 L 423.07227 514.91211 L 415.21484 515.62695 L 411.64258 499.19727 L 383.61328 474.36328 L 351.64258 485.62695 L 340.21484 476.3418 L 326.31836 474.33789 L 309.62305 476.93359 L 306.95898 489.88672 L 302.77539 495.08594 L 291.57227 481.71875 L 289.5 466.3418 L 293.07227 442.76953 L 280.92969 422.76953 L 265.21484 413.48438 L 245.21484 417.76953 L 253.78711 404.91211 L 241.64258 402.76953 L 215.92969 417.76953 L 198.78711 407.05469 L 190.21484 392.76953 L 185.92969 367.05469 L 180.92969 344.19727 L 185.92969 333.48438 L 179.5 325.62695 L 171.64258 324.19727 L 164.5 308.48438 L 157.88086 298.53711 L 157.375 293.48633 L 150.80859 293.48633 L 146.76953 290.45703 L 141.21289 300.55859 L 134.14258 295.50781 L 123.53906 300.05078 L 128.13086 303.66992 L 125.43945 309.80469 L 110.09375 310.35547 L 104.48438 313.00977 L 95.056641 327.83594 L 83.591797 323.22656 L 83.634766 323.28711 L 81.613281 325.8125 L 76.5625 319.24609 L 66.460938 321.77148 L 59.894531 307.12305 L 54.339844 302.07227 L 54.84375 298.0332 L 45.753906 287.93164 L 45.753906 282.375 L 43.228516 279.84961 L 34.642578 281.36523 L 31.105469 276.81836 L 29.591797 281.86914 L 22.519531 280.35547 L 17.974609 265.20312 L 12.923828 265.20312 L 17.46875 259.14062 L 15.953125 238.9375 L 10.902344 237.42383 L 23.025391 227.32227 L 16.964844 210.6543 L 17.46875 205.60352 L 10.398438 203.58398 L 8.8828125 196.51172 L 6.3574219 176.81445 L 1.3066406 165.19727 L 35.146484 149.53906 L 93.230469 113.67969 L 101.3125 105.59766 L 106.36328 105.09375 L 135.65625 87.919922 L 142.22266 80.34375 L 168.48633 70.748047 L 171.51758 63.171875 L 180.60938 67.716797 L 215.96484 54.585938 L 219.5 59.130859 L 218.49023 63.677734 L 223.54102 69.738281 L 214.95312 77.314453 L 219.5 82.365234 L 216.46875 84.384766 L 221.51953 88.931641 L 219.5 92.466797 L 230.10547 101.55859 L 233.13672 108.12305 L 258.39062 105.59766 L 255.86523 88.931641 L 269.50195 86.910156 L 272.5332 88.931641 L 275.5625 82.365234 L 287.68555 89.435547 L 292.23047 87.919922 L 307.38281 96.507812 L 327.58594 102.56836 L 326.07031 120.75 L 344.75781 121.76172 L 349.80859 116.71094 L 353.3457 116.71094 L 349.30469 125.80078 L 357.89062 123.78125 L 361.42578 117.21484 L 364.96094 120.75 L 383.64844 109.13477 L 395.77148 109.13477 L 424.56055 87.919922 L 442.23828 63.677734 L 435.92969 54.912109 L 465.92969 53.841797 L 472.35742 62.769531 L 480.92969 63.126953 L 492.35742 54.199219 L 478.42969 35.626953 L 483.07227 26.699219 L 478.42969 24.554688 L 500.92969 11.699219 L 519.5 10.984375 L 523.07227 15.626953 L 516.64258 21.341797 L 518.07227 34.199219 L 528.42969 29.554688 L 545.21484 34.554688 L 553.07227 33.126953 L 550.92969 25.269531 L 559.85742 22.769531 L 561.64258 15.626953 L 573.42969 2.7695312 L 581.28711 -0.087890625 z M 83.591797 323.22656 L 76.5625 313.18555 L 80.097656 311.66992 L 77.068359 306.61914 L 85.144531 303.08594 L 85.048828 303 L 76.96875 306.53516 L 79.998047 311.58594 L 76.462891 313.10156 L 83.533203 323.20312 L 83.591797 323.22656 z M 85.144531 303.08594 L 90.099609 307.54492 L 90.103516 307.54297 L 85.148438 303.08398 L 85.144531 303.08594 z M 90.103516 307.54297 L 90.199219 307.62891 L 96.765625 304.59766 L 96.765625 302.07227 L 108.38281 298.0332 L 103.33203 289.44531 L 117.47461 283.38477 L 121.91992 284.86719 L 121.91992 284.81641 L 117.375 283.30273 L 103.23242 289.36328 L 108.2832 297.94922 L 96.666016 301.99023 L 96.666016 304.51562 L 90.103516 307.54297 z M 121.91992 284.86719 L 121.91992 294.41406 L 122.01953 294.45508 L 122.01953 284.90039 L 121.91992 284.86719 z M 122.01953 294.45508 L 122.01953 294.49609 L 122.95508 294.8457 L 122.01953 294.45508 z M 122.95508 294.8457 L 125.99414 296.11719 L 126.06055 296.01172 L 122.95508 294.8457 z M 125.99414 296.11719 L 124.67383 298.23242 L 126.13672 296.17773 L 125.99414 296.11719 z M 124.67383 298.23242 L 123.43555 299.96875 L 123.53711 300.04883 L 124.67383 298.23242 z M 123.53711 300.04883 L 123.53516 300.05273 L 123.53906 300.05078 L 123.53711 300.04883 z M 625.92969 20.626953 L 623.07227 32.412109 L 615.92969 29.199219 L 618.07227 24.199219 L 625.92969 20.626953 z M 483.07227 244.91211 L 477 252.05469 L 468.07227 248.12695 L 453.42969 258.48438 L 456.64258 275.26953 L 447.35742 276.69727 L 443.42969 284.91211 L 451.28711 288.48438 L 458.78711 287.41211 L 465.92969 302.41211 L 476.64258 303.12695 L 479.85742 306.69727 L 505.57227 293.8418 L 496.28711 287.05469 L 498.07227 283.12695 L 503.42969 283.12695 L 500.57227 270.26953 L 488.42969 263.12695 L 492.71484 258.48438 L 491.64258 251.3418 L 483.07227 244.91211 z "
     id="rect124" />
</svg>
